<mxfile host="app.diagrams.net" modified="2023-11-04T11:43:40.627Z" agent="Mozilla/5.0 (Windows NT 10.0; Win64; x64) AppleWebKit/537.36 (KHTML, like Gecko) Chrome/118.0.0.0 Safari/537.36" etag="K-Dm6J7aqijpyOS0vIX0" version="22.0.8" type="github">
  <diagram name="Seite-1" id="cWbymSgKeV6EcGQshLAm">
    <mxGraphModel dx="1050" dy="566" grid="1" gridSize="10" guides="1" tooltips="1" connect="1" arrows="1" fold="1" page="1" pageScale="1" pageWidth="827" pageHeight="1169" math="0" shadow="0">
      <root>
        <mxCell id="0" />
        <mxCell id="1" parent="0" />
        <mxCell id="0mTjsQaeiGpvK8Sl3Ctb-1" style="edgeStyle=orthogonalEdgeStyle;rounded=0;orthogonalLoop=1;jettySize=auto;html=1;entryX=0.5;entryY=0;entryDx=0;entryDy=0;" edge="1" parent="1" source="0mTjsQaeiGpvK8Sl3Ctb-2" target="0mTjsQaeiGpvK8Sl3Ctb-5">
          <mxGeometry relative="1" as="geometry" />
        </mxCell>
        <mxCell id="0mTjsQaeiGpvK8Sl3Ctb-2" value="START" style="rounded=1;whiteSpace=wrap;html=1;" vertex="1" parent="1">
          <mxGeometry x="239.5" y="100" width="110" height="40" as="geometry" />
        </mxCell>
        <mxCell id="0mTjsQaeiGpvK8Sl3Ctb-3" style="edgeStyle=orthogonalEdgeStyle;rounded=0;orthogonalLoop=1;jettySize=auto;html=1;entryX=0.5;entryY=0;entryDx=0;entryDy=0;" edge="1" parent="1" source="0mTjsQaeiGpvK8Sl3Ctb-5" target="0mTjsQaeiGpvK8Sl3Ctb-6">
          <mxGeometry relative="1" as="geometry">
            <Array as="points">
              <mxPoint x="172.5" y="210" />
            </Array>
          </mxGeometry>
        </mxCell>
        <mxCell id="0mTjsQaeiGpvK8Sl3Ctb-4" style="edgeStyle=orthogonalEdgeStyle;rounded=0;orthogonalLoop=1;jettySize=auto;html=1;entryX=0.5;entryY=0;entryDx=0;entryDy=0;" edge="1" parent="1" source="0mTjsQaeiGpvK8Sl3Ctb-5" target="0mTjsQaeiGpvK8Sl3Ctb-11">
          <mxGeometry relative="1" as="geometry">
            <mxPoint x="417.5" y="260" as="targetPoint" />
            <Array as="points">
              <mxPoint x="427.5" y="210" />
            </Array>
          </mxGeometry>
        </mxCell>
        <mxCell id="0mTjsQaeiGpvK8Sl3Ctb-5" value="Is it cleanly &lt;br&gt;divisible by 4?" style="rhombus;whiteSpace=wrap;html=1;" vertex="1" parent="1">
          <mxGeometry x="227" y="170" width="135" height="80" as="geometry" />
        </mxCell>
        <mxCell id="0mTjsQaeiGpvK8Sl3Ctb-6" value="Not Leap" style="rounded=1;whiteSpace=wrap;html=1;fillColor=#f8cecc;strokeColor=#b85450;" vertex="1" parent="1">
          <mxGeometry x="117" y="260" width="110" height="40" as="geometry" />
        </mxCell>
        <mxCell id="0mTjsQaeiGpvK8Sl3Ctb-7" value="No" style="text;html=1;align=center;verticalAlign=middle;resizable=0;points=[];autosize=1;" vertex="1" parent="1">
          <mxGeometry x="189.5" y="190" width="30" height="20" as="geometry" />
        </mxCell>
        <mxCell id="0mTjsQaeiGpvK8Sl3Ctb-8" value="Yes" style="text;html=1;align=center;verticalAlign=middle;resizable=0;points=[];autosize=1;" vertex="1" parent="1">
          <mxGeometry x="369.5" y="190" width="40" height="20" as="geometry" />
        </mxCell>
        <mxCell id="0mTjsQaeiGpvK8Sl3Ctb-9" style="edgeStyle=orthogonalEdgeStyle;rounded=0;orthogonalLoop=1;jettySize=auto;html=1;exitX=0;exitY=0.5;exitDx=0;exitDy=0;entryX=0.5;entryY=0;entryDx=0;entryDy=0;" edge="1" parent="1" source="0mTjsQaeiGpvK8Sl3Ctb-11" target="0mTjsQaeiGpvK8Sl3Ctb-12">
          <mxGeometry relative="1" as="geometry" />
        </mxCell>
        <mxCell id="0mTjsQaeiGpvK8Sl3Ctb-10" style="edgeStyle=orthogonalEdgeStyle;rounded=0;orthogonalLoop=1;jettySize=auto;html=1;exitX=1;exitY=0.5;exitDx=0;exitDy=0;entryX=0.5;entryY=0;entryDx=0;entryDy=0;" edge="1" parent="1" source="0mTjsQaeiGpvK8Sl3Ctb-11" target="0mTjsQaeiGpvK8Sl3Ctb-15">
          <mxGeometry relative="1" as="geometry" />
        </mxCell>
        <mxCell id="0mTjsQaeiGpvK8Sl3Ctb-11" value="Is it cleanly &lt;br&gt;divisible by 100?" style="rhombus;whiteSpace=wrap;html=1;" vertex="1" parent="1">
          <mxGeometry x="362" y="260" width="130" height="80" as="geometry" />
        </mxCell>
        <mxCell id="0mTjsQaeiGpvK8Sl3Ctb-12" value="Leap" style="rounded=1;whiteSpace=wrap;html=1;fillColor=#d5e8d4;strokeColor=#82b366;" vertex="1" parent="1">
          <mxGeometry x="252" y="370" width="110" height="40" as="geometry" />
        </mxCell>
        <mxCell id="0mTjsQaeiGpvK8Sl3Ctb-13" style="edgeStyle=orthogonalEdgeStyle;rounded=0;orthogonalLoop=1;jettySize=auto;html=1;exitX=0;exitY=0.5;exitDx=0;exitDy=0;entryX=0.5;entryY=0;entryDx=0;entryDy=0;" edge="1" parent="1" source="0mTjsQaeiGpvK8Sl3Ctb-15" target="0mTjsQaeiGpvK8Sl3Ctb-21">
          <mxGeometry relative="1" as="geometry" />
        </mxCell>
        <mxCell id="0mTjsQaeiGpvK8Sl3Ctb-14" style="edgeStyle=orthogonalEdgeStyle;rounded=0;orthogonalLoop=1;jettySize=auto;html=1;exitX=1;exitY=0.5;exitDx=0;exitDy=0;entryX=0.5;entryY=0;entryDx=0;entryDy=0;" edge="1" parent="1" source="0mTjsQaeiGpvK8Sl3Ctb-15" target="0mTjsQaeiGpvK8Sl3Ctb-16">
          <mxGeometry relative="1" as="geometry" />
        </mxCell>
        <mxCell id="0mTjsQaeiGpvK8Sl3Ctb-15" value="Is it cleanly &lt;br&gt;divisible by 400?" style="rhombus;whiteSpace=wrap;html=1;" vertex="1" parent="1">
          <mxGeometry x="459.5" y="370" width="140" height="80" as="geometry" />
        </mxCell>
        <mxCell id="0mTjsQaeiGpvK8Sl3Ctb-16" value="Leap" style="rounded=1;whiteSpace=wrap;html=1;fillColor=#d5e8d4;strokeColor=#82b366;" vertex="1" parent="1">
          <mxGeometry x="599.5" y="490" width="110" height="40" as="geometry" />
        </mxCell>
        <mxCell id="0mTjsQaeiGpvK8Sl3Ctb-17" value="Yes" style="text;html=1;align=center;verticalAlign=middle;resizable=0;points=[];autosize=1;" vertex="1" parent="1">
          <mxGeometry x="492" y="280" width="40" height="20" as="geometry" />
        </mxCell>
        <mxCell id="0mTjsQaeiGpvK8Sl3Ctb-18" value="No" style="text;html=1;align=center;verticalAlign=middle;resizable=0;points=[];autosize=1;" vertex="1" parent="1">
          <mxGeometry x="319.5" y="280" width="30" height="20" as="geometry" />
        </mxCell>
        <mxCell id="0mTjsQaeiGpvK8Sl3Ctb-19" value="No" style="text;html=1;align=center;verticalAlign=middle;resizable=0;points=[];autosize=1;" vertex="1" parent="1">
          <mxGeometry x="419.5" y="390" width="30" height="20" as="geometry" />
        </mxCell>
        <mxCell id="0mTjsQaeiGpvK8Sl3Ctb-20" value="Yes" style="text;html=1;align=center;verticalAlign=middle;resizable=0;points=[];autosize=1;" vertex="1" parent="1">
          <mxGeometry x="599.5" y="390" width="40" height="20" as="geometry" />
        </mxCell>
        <mxCell id="0mTjsQaeiGpvK8Sl3Ctb-21" value="Not Leap" style="rounded=1;whiteSpace=wrap;html=1;fillColor=#f8cecc;strokeColor=#b85450;" vertex="1" parent="1">
          <mxGeometry x="349.5" y="490" width="110" height="40" as="geometry" />
        </mxCell>
      </root>
    </mxGraphModel>
  </diagram>
</mxfile>
